#!OML:ASF H:\Punching\Project 1\Capture day 1\Session 1\female.ASF
:FULLY-SPECIFIED
:DEGREES
1501
root -2.31903 15.565 7.35134 12.1358 -4.3893 0.243532
lowerback -4.39391 -0.724945 2.53186
upperback -6.57146 -1.00598 0.281739
thorax -4.36922 -0.617401 -1.12934
lowerneck -7.88246 5.81827 11.7812
upperneck 33.0296 8.20913 -6.69458
head 13.168 4.29147 -3.54548
rclavicle 9.31803e-016 -5.76476e-015
rhumerus -28.6133 5.10441 -77.4337
rradius 54.8776
rwrist -20.6643
rhand -13.5489 -21.189
rfingers 7.12502
rthumb 12.564 -50.7912
lclavicle 9.31803e-016 -5.76476e-015
lhumerus -41.7015 -4.08873 68.6788
lradius 79.828
lwrist 30.0511
lhand -12.2414 34.8262
lfingers 7.12502
lthumb 13.8244 64.3468
rfemur -18.3096 2.73588 19.6963
rtibia 32.7802
rfoot -24.7182 -17.7843
rtoes 1.19863
lfemur -11.0366 -3.00073 -16.0718
ltibia 28.2983
lfoot -21.5252 18.4723
ltoes -12.1819
1502
root -2.33044 15.5639 7.37319 11.9599 -4.52733 0.103079
lowerback -4.3214 -0.74313 2.80538
upperback -6.53528 -1.03312 0.259689
thorax -4.38024 -0.643942 -1.30435
lowerneck -7.66376 5.86697 11.7902
upperneck 33.2134 8.33105 -6.74558
head 13.2189 4.34618 -3.559
rclavicle 1.50331e-015 -1.35174e-014
rhumerus -27.5828 6.23835 -77.9974
rradius 57.0888
rwrist -21.6617
rhand -13.8774 -21.1546
rfingers 7.12502
rthumb 12.2474 -50.776
lclavicle 1.50331e-015 -1.35174e-014
lhumerus -40.491 -5.06912 68.6166
lradius 82.0681
lwrist 31.0065
lhand -12.4002 35.0798
lfingers 7.12502
lthumb 13.6713 64.6108
rfemur -17.8702 2.68989 19.8816
rtibia 32.4605
rfoot -24.6301 -17.5567
rtoes 1.10887
lfemur -11.9849 -2.12962 -15.8276
ltibia 30.6446
lfoot -21.3255 17.6567
ltoes -13.7161
1503
root -2.34103 15.5632 7.39497 11.772 -4.63212 -0.0433413
lowerback -4.21741 -0.764897 3.08636
upperback -6.49123 -1.06352 0.242261
thorax -4.40145 -0.672276 -1.47829
lowerneck -7.45758 5.90993 11.7952
upperneck 33.3826 8.44399 -6.79881
head 13.2652 4.39577 -3.57362
rclavicle -1.36664e-015 -1.61016e-014
rhumerus -26.556 7.37222 -78.5096
rradius 59.3638
rwrist -22.6534
rhand -14.1622 -21.1509
rfingers 7.12502
rthumb 11.9727 -50.7884
lclavicle -1.36664e-015 -1.61016e-014
lhumerus -39.1971 -6.09157 68.556
lradius 84.2646
lwrist 31.9161
lhand -12.4854 35.4077
lfingers 7.12502
lthumb 13.5892 64.9442
rfemur -17.3989 2.63588 20.0778
rtibia 32.1138
rfoot -24.5304 -17.3624
rtoes 1.031
lfemur -13.0183 -1.34229 -15.5513
ltibia 33.1326
lfoot -20.9804 16.826
ltoes -15.0385
1504
root -2.35077 15.5628 7.41686 11.5885 -4.72683 -0.197894
lowerback -4.0953 -0.783298 3.3677
upperback -6.44656 -1.08788 0.232723
thorax -4.43226 -0.697457 -1.64391
lowerneck -7.26224 5.94713 11.7915
upperneck 33.5425 8.54764 -6.84922
head 13.3083 4.44024 -3.5867
rclavicle 7.0817e-016 1.98785e-016
rhumerus -25.5375 8.51152 -78.964
rradius 61.7001
rwrist -23.6392
rhand -14.3863 -21.1845
rfingers 7.12502
rthumb 11.7567 -50.8346
lclavicle 7.0817e-016 1.98785e-016
lhumerus -37.8271 -7.15203 68.4932
lradius 86.4195
lwrist 32.8047
lhand -12.5104 35.7739
lfingers 7.12502
lthumb 13.5652 65.312
rfemur -16.9196 2.57673 20.2817
rtibia 31.7477
rfoot -24.419 -17.1872
rtoes 0.94277
lfemur -14.1382 -0.623004 -15.2455
ltibia 35.7246
lfoot -20.4715 15.9971
ltoes -16.0858
1505
root -2.35913 15.5619 7.43925 11.4034 -4.80393 -0.362052
lowerback -3.95775 -0.802333 3.65414
upperback -6.39144 -1.11164 0.232761
thorax -4.46113 -0.722084 -1.80226
lowerneck -7.09668 5.98072 11.7775
upperneck 33.693 8.64368 -6.89817
head 13.3522 4.47944 -3.59772
rclavicle -1.30452e-015 5.1684e-015
rhumerus -24.5037 9.65509 -79.3551
rradius 64.08
rwrist -24.6171
rhand -14.5923 -21.2332
rfingers 7.12502
rthumb 11.558 -50.8945
lclavicle -1.30452e-015 5.1684e-015
lhumerus -36.3712 -8.23994 68.4214
lradius 88.5264
lwrist 33.6867
lhand -12.4994 36.1564
lfingers 7.12502
lthumb 13.5757 65.6938
rfemur -16.4278 2.49921 20.494
rtibia 31.3692
rfoot -24.3007 -17.0312
rtoes 0.809075
lfemur -15.3265 0.0217606 -14.9102
ltibia 38.3763
lfoot -19.775 15.1833
ltoes -16.7741
1506
root -2.36611 15.5601 7.46236 11.2232 -4.87311 -0.548643
lowerback -3.80633 -0.81928 3.95354
upperback -6.33464 -1.13088 0.246204
thorax -4.49631 -0.744702 -1.95369
lowerneck -6.93813 6.01047 11.7577
upperneck 33.8295 8.73282 -6.9449
head 13.3905 4.51486 -3.60749
rclavicle 5.889e-015 -3.18055e-015
rhumerus -23.4664 10.8067 -79.6822
rradius 66.4955
rwrist -25.5771
rhand -14.7767 -21.2687
rfingers 7.12502
rthumb 11.3802 -50.9399
lclavicle 5.889e-015 -3.18055e-015
lhumerus -34.8507 -9.35183 68.3349
lradius 90.592
lwrist 34.5797
lhand -12.4839 36.5249
lfingers 7.12502
lthumb 13.5906 66.0613
rfemur -15.9325 2.41056 20.726
rtibia 30.9829
rfoot -24.1773 -16.8874
rtoes 0.626287
lfemur -16.569 0.605843 -14.5336
ltibia 41.0382
lfoot -18.8995 14.3801
ltoes -17.0716
1507
root -2.37189 15.5572 7.48631 11.0605 -4.95116 -0.764565
lowerback -3.65173 -0.833956 4.2613
upperback -6.27899 -1.14538 0.280406
thorax -4.53436 -0.764819 -2.08813
lowerneck -6.7963 6.03854 11.7342
upperneck 33.9554 8.81978 -6.99842
head 13.4276 4.54754 -3.61914
rclavicle 1.18401e-014 -1.41137e-014
rhumerus -22.4118 11.9803 -79.9471
rradius 68.926
rwrist -26.5199
rhand -14.9749 -21.2111
rfingers 7.12502
rthumb 11.1889 -50.8927
lclavicle 1.18401e-014 -1.41137e-014
lhumerus -33.2773 -10.4817 68.2319
lradius 92.6134
lwrist 35.4774
lhand -12.4962 36.8386
lfingers 7.12502
lthumb 13.5788 66.3758
rfemur -15.4515 2.33019 20.9822
rtibia 30.5923
rfoot -24.0447 -16.7561
rtoes 0.39025
lfemur -17.8567 1.15414 -14.1135
ltibia 43.6581
lfoot -17.8837 13.5719
ltoes -17.0019
1508
root -2.37601 15.5532 7.51173 10.9034 -5.02619 -1.00748
lowerback -3.4902 -0.849457 4.58245
upperback -6.22062 -1.15921 0.331344
thorax -4.57381 -0.784711 -2.21252
lowerneck -6.6572 6.06591 11.7114
upperneck 34.0664 8.90493 -7.05409
head 13.4589 4.57904 -3.63171
rclavicle 2.13072e-014 -2.80286e-014
rhumerus -21.3372 13.1552 -80.1482
rradius 71.3505
rwrist -27.4297
rhand -15.1402 -21.0081
rfingers 7.12502
rthumb 11.0296 -50.6983
lclavicle 2.13072e-014 -2.80286e-014
lhumerus -31.6595 -11.6335 68.1116
lradius 94.6004
lwrist 36.4104
lhand -12.5903 37.0306
lfingers 7.12502
lthumb 13.4881 66.5738
rfemur -14.9667 2.25346 21.2599
rtibia 30.1985
rfoot -23.9129 -16.635
rtoes 0.129473
lfemur -19.1542 1.66263 -13.657
ltibia 46.1805
lfoot -16.7964 12.7616
ltoes -16.6791
1509
root -2.37845 15.5482 7.53897 10.7553 -5.1034 -1.26335
lowerback -3.32689 -0.86346 4.9057
upperback -6.16593 -1.16947 0.391717
thorax -4.61813 -0.80281 -2.32812
lowerneck -6.51115 6.08916 11.6944
upperneck 34.1669 8.98303 -7.11059
head 13.4837 4.60819 -3.64672
rclavicle 1.58531e-014 1.07344e-014
rhumerus -20.2546 14.3141 -80.2886
rradius 73.7668
rwrist -28.2853
rhand -15.2208 -20.6952
rfingers 7.12502
rthumb 10.9518 -50.3896
lclavicle 1.58531e-014 1.07344e-014
lhumerus -30.0114 -12.8072 67.9693
lradius 96.5549
lwrist 37.344
lhand -12.6936 37.2251
lfingers 7.12502
lthumb 13.3885 66.7749
rfemur -14.4832 2.19117 21.542
rtibia 29.8027
rfoot -23.7839 -16.5236
rtoes -0.125198
lfemur -20.4399 2.14143 -13.1857
ltibia 48.5478
lfoot -15.7574 11.9083
ltoes -16.1994
1510
root -2.37914 15.543 7.5685 10.6195 -5.18985 -1.52191
lowerback -3.17008 -0.875911 5.21903
upperback -6.1148 -1.17659 0.459565
thorax -4.6621 -0.818762 -2.4304
lowerneck -6.3572 6.11334 11.6832
upperneck 34.2593 9.06117 -7.16586
head 13.5037 4.6384 -3.66232
rclavicle 1.1281e-014 -2.98177e-015
rhumerus -19.1587 15.4512 -80.3716
rradius 76.1695
rwrist -29.0921
rhand -15.2102 -20.305
rfingers 7.12502
rthumb 10.962 -49.9988
lclavicle 1.1281e-014 -2.98177e-015
lhumerus -28.3331 -14.0017 67.8042
lradius 98.4624
lwrist 38.2589
lhand -12.8267 37.3628
lfingers 7.12502
lthumb 13.2602 66.921
rfemur -14.0031 2.1546 21.8161
rtibia 29.4049
rfoot -23.6582 -16.4248
rtoes -0.362468
lfemur -21.6953 2.59636 -12.7161
ltibia 50.7014
lfoot -14.8742 11.0158
ltoes -15.697
1511
root -2.37776 15.538 7.60074 10.4879 -5.27598 -1.76649
lowerback -3.01481 -0.891785 5.5113
upperback -6.06781 -1.18714 0.529641
thorax -4.70941 -0.835583 -2.51839
lowerneck -6.18639 6.1368 11.682
upperneck 34.3413 9.13887 -7.22569
head 13.5164 4.66955 -3.68186
rclavicle 1.08089e-015 3.97569e-016
rhumerus -18.0508 16.5548 -80.402
rradius 78.5509
rwrist -29.8386
rhand -15.0905 -19.8902
rfingers 7.12502
rthumb 11.0775 -49.5779
lclavicle 1.08089e-015 3.97569e-016
lhumerus -26.625 -15.1994 67.607
lradius 100.308
lwrist 39.0763
lhand -12.8889 37.5294
lfingers 7.12502
lthumb 13.2002 67.0915
rfemur -13.5176 2.13526 22.0651
rtibia 29.0071
rfoot -23.5394 -16.3415
rtoes -0.574157
lfemur -22.8985 3.01225 -12.2681
ltibia 52.5872
lfoot -14.1993 10.0952
ltoes -15.2605
1512
root -2.37473 15.5342 7.6358 10.383 -5.38506 -1.98155
lowerback -2.88226 -0.900472 5.76243
upperback -6.03374 -1.18855 0.594159
thorax -4.7557 -0.846418 -2.58945
lowerneck -6.00052 6.15639 11.6886
upperneck 34.4231 9.20908 -7.2804
head 13.5252 4.69944 -3.70231
rclavicle -3.0265e-014 6.36111e-015
rhumerus -16.9453 17.6097 -80.3921
rradius 80.916
rwrist -30.5355
rhand -14.8957 -19.5123
rfingers 7.12502
rthumb 11.2654 -49.1898
lclavicle -3.0265e-014 6.36111e-015
lhumerus -24.8904 -16.4085 67.3802
lradius 102.083
lwrist 39.7723
lhand -12.8764 37.672
lfingers 7.12502
lthumb 13.2124 67.2333
rfemur -13.056 2.14134 22.269
rtibia 28.6103
rfoot -23.4203 -16.2626
rtoes -0.757909
lfemur -24.0572 3.40798 -11.864
ltibia 54.1568
lfoot -13.7282 9.1783
ltoes -14.978
1513
root -2.37009 15.5318 7.6737 10.3023 -5.50675 -2.15393
lowerback -2.77327 -0.906743 5.96048
upperback -6.01222 -1.18774 0.649803
thorax -4.80023 -0.854252 -2.64034
lowerneck -5.81653 6.17646 11.6916
upperneck 34.519 9.27494 -7.31622
head 13.5391 4.72922 -3.71545
rclavicle -3.00165e-014 1.19271e-014
rhumerus -15.8434 18.6193 -80.3523
rradius 83.2548
rwrist -31.1839
rhand -14.6973 -19.1845
rfingers 7.12502
rthumb 11.4567 -48.8514
lclavicle -3.00165e-014 1.19271e-014
lhumerus -23.1212 -17.6056 67.1242
lradius 103.764
lwrist 40.2991
lhand -12.7373 37.8049
lfingers 7.12502
lthumb 13.3464 67.3575
rfemur -12.6199 2.15806 22.4162
rtibia 28.2213
rfoot -23.3036 -16.1914
rtoes -0.931065
lfemur -25.167 3.76879 -11.5164
ltibia 55.3784
lfoot -13.4105 8.30548
ltoes -14.7953
1514
root -2.36377 15.531 7.7149 10.2405 -5.64183 -2.27081
lowerback -2.68527 -0.908608 6.09851
upperback -5.99898 -1.18268 0.687408
thorax -4.83963 -0.857815 -2.67683
lowerneck -5.63734 6.19366 11.704
upperneck 34.6201 9.33038 -7.34007
head 13.5551 4.75696 -3.72698
rclavicle 8.94531e-016 2.10712e-014
rhumerus -14.7507 19.5695 -80.2934
rradius 85.5721
rwrist -31.7771
rhand -14.5252 -18.9375
rfingers 7.12502
rthumb 11.6226 -48.5952
lclavicle 8.94531e-016 2.10712e-014
lhumerus -21.3232 -18.793 66.8376
lradius 105.356
lwrist 40.6762
lhand -12.5268 37.8346
lfingers 7.12502
lthumb 13.5493 67.3737
rfemur -12.2056 2.1781 22.4925
rtibia 27.846
rfoot -23.1933 -16.1244
rtoes -1.09983
lfemur -26.2108 4.08541 -11.2395
ltibia 56.2312
lfoot -13.177 7.5235
ltoes -14.6853
